<?xml version="1.0" encoding="UTF-8" standalone="no"?>
<svg
    width="50"
    height="450"
    viewBox="0 0 50 450"
    version="1.1"
    id="svg1"
    sodipodi:docname="XrossInfinite.svg"
    inkscape:version="1.4.3 (0d15f75042, 2025-12-25)"
    xmlns:inkscape="http://www.inkscape.org/namespaces/inkscape"
    xmlns:sodipodi="http://sodipodi.sourceforge.net/DTD/sodipodi-0.dtd"
    xmlns="http://www.w3.org/2000/svg"
    xmlns:svg="http://www.w3.org/2000/svg"
>
    <defs id="defs1">
        <linearGradient id="prismGradient" x1="0%" y1="0%" x2="0%" y2="100%">
            <stop offset="0%" stop-color="#ff0000" />
            <stop offset="20%" stop-color="#ffff00" />
            <stop offset="40%" stop-color="#00ff00" />
            <stop offset="60%" stop-color="#00ffff" />
            <stop offset="80%" stop-color="#0000ff" />
            <stop offset="100%" stop-color="#ff00ff" />
        </linearGradient>
        <filter id="glow" x="-50%" y="-50%" width="200%" height="200%">
            <!-- ① 芯を作るための細く濃い光 -->
            <feGaussianBlur stdDeviation="1" result="blur1" />
            <!-- ② 周囲に広がる鮮やかな光 -->
            <feGaussianBlur stdDeviation="3" result="blur2" />

            <!-- 光を何重にもブレンドして密度（くっきり感）を爆上げする -->
            <feMerge>
                <feMergeNode in="blur2" />
                <feMergeNode in="blur1" />
                <feMergeNode in="blur1" />
                <!-- 2回重ねて濃くする -->
                <feMergeNode in="SourceGraphic" />
            </feMerge>
        </filter>
    </defs>
    <path
        style="
            baseline-shift: baseline;
            display: inline;
            overflow: visible;
            vector-effect: none;
            enable-background: accumulate;
            stop-color: #000000;
            stop-opacity: 1;
            opacity: 1;
            filter: url(#glow);
        "
        fill="url(#prismGradient)"
        d="
M 25,15
  l -2.84,11.35
  l -5.68,195.81
  l 0,9.93
  l 4.26,4.26
  l 8.51,0
  l 4.26,-4.26
  l 0,-9.93
  l -5.68,-195.81
  l -2.84,-11.35 z

  M 19.32,225
  a 5.68,5.68 0 1,1 11.36,0
  a 5.68,5.68 0 1,1 -11.36,0 z

  M 25,19.54
  l 1.42,6.81
  l -1.42,11.35
  l -1.42,-11.35
  l 1.42,-6.81 z

  M 23.58,33.73
  l 1.42,11.35
  l 1.42,-11.35
  l 4.26,175.95
  l -2.84,2.84
  l -5.68,0
  l -2.84,-2.84 z
"
        id="path2"
    />
    <path
        style="
            baseline-shift: baseline;
            display: inline;
            overflow: visible;
            vector-effect: none;
            enable-background: accumulate;
            stop-color: #000000;
            stop-opacity: 1;
            opacity: 1;
        "
        d="M 25,15
  l -2.84,11.35
  l -5.68,195.81
  l 0,9.93
  l 4.26,4.26
  l 8.51,0
  l 4.26,-4.26
  l 0,-9.93
  l -5.68,-195.81
  l -2.84,-11.35 z

  M 19.32,225
  a 5.68,5.68 0 1,1 11.36,0
  a 5.68,5.68 0 1,1 -11.36,0 z

  M 25,19.54
  l 1.42,6.81
  l -1.42,11.35
  l -1.42,-11.35
  l 1.42,-6.81 z

  M 23.58,33.73
  l 1.42,11.35
  l 1.42,-11.35
  l 4.26,175.95
  l -2.84,2.84
  l -5.68,0
  l -2.84,-2.84 z"
        fill-rule="evenodd"
        fill="#ffffff"
        id="path1"
    />
</svg>
