<?xml version="1.0" encoding="UTF-8" standalone="no"?>
<svg
    width="410"
    height="200"
    viewBox="0 0 410 200"
    version="1.1"
    id="svg1"
    sodipodi:docname="XrossInfinite.svg"
    inkscape:version="1.4.3 (0d15f75042, 2025-12-25)"
    xmlns:inkscape="http://www.inkscape.org/namespaces/inkscape"
    xmlns:sodipodi="http://sodipodi.sourceforge.net/DTD/sodipodi-0.dtd"
    xmlns="http://www.w3.org/2000/svg"
    xmlns:svg="http://www.w3.org/2000/svg"
>
    <path
        style="
            baseline-shift: baseline;
            display: inline;
            overflow: visible;
            vector-effect: none;
            enable-background: accumulate;
            stop-color: #000000;
            stop-opacity: 1;
            opacity: 1;
        "
        d="M 400 100
        l -20 -5
        l -345 -10
        h -17.5
        l -7.5 7.5
        v 15
        l 7.5 7.5
        h 17.5
        l 345 -10
        l 20 -5
        M 30, 90
        A 10,10 0 1,1 30,110
        A 10,10 0 1,1 30,90 Z

        M 380, 100
        m 12 0
        l -12 2.5
        l -20 -2.5
        l 20 -2.5
        l 12 2.5
        z
        M 355, 100
        m 12 -2.5
        l -20 2.5
        l 20 2.5
        l -310 7.5
        l -5 -5
        v -10
        l 5 -5
        z"
        fill-rule="evenodd"
        fill="#888888"
        id="path1"
    />
</svg>
