<?xml version="1.0" encoding="UTF-8" standalone="no"?>
<svg
    width="50"
    height="450"
    viewBox="0 0 50 450"
    version="1.1"
    id="svg1"
    sodipodi:docname="XrossInfinite.svg"
    inkscape:version="1.4.3 (0d15f75042, 2025-12-25)"
    xmlns:inkscape="http://www.inkscape.org/namespaces/inkscape"
    xmlns:sodipodi="http://sodipodi.sourceforge.net/DTD/sodipodi-0.dtd"
    xmlns="http://www.w3.org/2000/svg"
    xmlns:svg="http://www.w3.org/2000/svg"
>
    <path
        style="
            baseline-shift: baseline;
            display: inline;
            overflow: visible;
            vector-effect: none;
            enable-background: accumulate;
            stop-color: #000000;
            stop-opacity: 1;
            opacity: 1;
        "
        d="
  M 25,95
  l -2.83,11.3
  l -5.65,115.87
  l 0,9.89
  l 4.24,4.24
  l 8.48,0
  l 4.24,-4.24
  l 0,-9.89
  l -5.65,-115.87
  l -2.83,-11.3 z

  M 19.35,225
  a 5.65,5.65 0 1,1 11.3,0
  a 5.65,5.65 0 1,1 -11.3,0 z

  M 25,99.52
  l 1.41,6.78
  l -1.41,11.3
  l -1.41,-11.3
  l 1.41,-6.78 z

  M 23.59,113.65
  l 1.41,11.3
  l 1.41,-11.3
  l 4.24,96.09
  l -2.83,2.83
  l -5.65,0
  l -2.83,-2.83 z"
        fill-rule="evenodd"
        fill="#ffffff"
        id="path1"
    />
</svg>
