<?xml version="1.0" encoding="UTF-8" standalone="no"?>
<svg
    width="50"
    height="450"
    viewBox="0 0 50 450"
    version="1.1"
    id="svg1"
    sodipodi:docname="XrossInfinite.svg"
    inkscape:version="1.4.3 (0d15f75042, 2025-12-25)"
    xmlns:inkscape="http://www.inkscape.org/namespaces/inkscape"
    xmlns:sodipodi="http://sodipodi.sourceforge.net/DTD/sodipodi-0.dtd"
    xmlns="http://www.w3.org/2000/svg"
    xmlns:svg="http://www.w3.org/2000/svg"
>
    <path
        style="
            baseline-shift: baseline;
            display: inline;
            overflow: visible;
            vector-effect: none;
            enable-background: accumulate;
            stop-color: #000000;
            stop-opacity: 1;
            opacity: 1;
        "
        d="M 25,15
  l -2.84,11.35
  l -5.68,195.81
  l 0,9.93
  l 4.26,4.26
  l 8.51,0
  l 4.26,-4.26
  l 0,-9.93
  l -5.68,-195.81
  l -2.84,-11.35 z

  M 19.32,225
  a 5.68,5.68 0 1,1 11.36,0
  a 5.68,5.68 0 1,1 -11.36,0 z

  M 25,19.54
  l 1.42,6.81
  l -1.42,11.35
  l -1.42,-11.35
  l 1.42,-6.81 z

  M 23.58,33.73
  l 1.42,11.35
  l 1.42,-11.35
  l 4.26,175.95
  l -2.84,2.84
  l -5.68,0
  l -2.84,-2.84 z"
        fill-rule="evenodd"
        fill="#ffffff"
        id="path1"
    />
</svg>
